# xmcd
#
# Track frame offsets: 
#        150
#        19715
#        38480
#        56007
#        75237
#        106375
#        111480
#        133492
#        148645
#        168412
#        171607
#        187797
#        208877
#        232702
#
# Disc length: 3413 seconds
#
# Revision: 1
# Processed by: cddbd v1.5.2PL0 Copyright (c) Steve Scherf et al.
# Submitted via: ExactAudioCopy v0.95b4
#
DISCID=bd0d530e
DTITLE=Vhaldemar - I Made My Own Hell (Japanese Edition)
DYEAR=2003
DGENRE=Power Metal
TTITLE0=I Made My Own Hell
TTITLE1=Breakin' All The Rules
TTITLE2=No Return
TTITLE3=Steam - Roller
TTITLE4=Old King's Visions (Part II)
TTITLE5=On A Crossroads (Bonus Track)
TTITLE6=Higher (Bonus Track)
TTITLE7=Mystery (Instrumental)
TTITLE8=House Of War
TTITLE9=Moonlight (Instrumental)
TTITLE10=Dreamer
TTITLE11=Death Comes Tonight
TTITLE12=I Will Raise My Fist
TTITLE13=March Of Dooms (Instrumental)
EXTD=YEAR: 2003
EXTT0=
EXTT1=
EXTT2=
EXTT3=
EXTT4=
EXTT5=
EXTT6=
EXTT7=
EXTT8=
EXTT9=
EXTT10=
EXTT11=
EXTT12=
EXTT13=
PLAYORDER=
